PathFileType	4	(X/Y/Z)	/Users/mathieubourgeois/Desktop/Analyse/Traitement/Sujet_06/Data/Transformed_Sujet_06_velo_60.trc
DataRate	CameraRate	NumFrames	NumMarkers	Units	OrigDataRate	OrigDataStartFrame	OrigNumFrames
120.000000	120.000000	4	36	mm	120.000000	1167	1868
Frame#	Time	RFHD			RANE			STRN			LANI			LKNE			T10			RHUM			RWRB			C7			LFWT			LTOE			RTOE			LWRA			LBWT			RBWT			RFWT			LKNI			RKNI			RKNE			LANE			RANI			LHEE			RHEE			LHUM			LRAD			RRAD			RWRA			LWRB			LFHD			LBHD			RBHD			RSHO			LSHO			CLAV			LCAR			RCAR			
		X1	Y1	Z1	X2	Y2	Z2	X3	Y3	Z3	X4	Y4	Z4	X5	Y5	Z5	X6	Y6	Z6	X7	Y7	Z7	X8	Y8	Z8	X9	Y9	Z9	X10	Y10	Z10	X11	Y11	Z11	X12	Y12	Z12	X13	Y13	Z13	X14	Y14	Z14	X15	Y15	Z15	X16	Y16	Z16	X17	Y17	Z17	X18	Y18	Z18	X19	Y19	Z19	X20	Y20	Z20	X21	Y21	Z21	X22	Y22	Z22	X23	Y23	Z23	X24	Y24	Z24	X25	Y25	Z25	X26	Y26	Z26	X27	Y27	Z27	X28	Y28	Z28	X29	Y29	Z29	X30	Y30	Z30	X31	Y31	Z31	X32	Y32	Z32	X33	Y33	Z33	X34	Y34	Z34	X35	Y35	Z35	X36	Y36	Z36	

1168	9.725	255.5247955322266	1377.953247070312	105.2514877319335	-201.2914733886719	364.9536437988281	193.7553558349609	-48.92347717285157	1199.327514648438	46.16638183593742	87.46705627441406	480.9469299316406	-53.05381011962892	123.9801483154297	870.5067138671875	-119.1289749145508	-207.0470275878906	1349.801879882812	54.88626098632801	185.5560150146484	1126.95361328125	219.9962005615234	389.4048156738281	1008.582946777344	181.3323974609375	27.2128562927246	1458.845947265625	48.65184020996085	-184.4849700927734	1110.852172851562	-54.40627670288095	237.8594512939453	396.4317626953125	-124.2922973632812	-83.29143524169925	215.4220581054688	199.4102935791016	411.8446960449219	1026.501220703125	-140.3013305664062	-346.7004699707031	1139.277099609375	-2.913068294525259	-341.4254455566406	1134.634155273438	106.7433471679686	-183.6473541259766	1099.85791015625	154.8114013671874	145.8516693115234	826.6410522460938	-25.7125339508057	27.2522506713867	654.3336791992188	131.3503265380859	7.850272655487033	704.0178833007812	221.6511230468749	58.934871673584	476.8392944335938	-131.4261779785157	-168.9211730957032	355.3392028808594	119.8027801513671	7.347929954528819	466.1411743164062	-89.59024810791018	-249.5424499511719	377.0823059082031	141.5663146972656	181.5266571044922	1121.873168945312	-182.0733032226563	218.5984802246094	1170.364379882812	-199.6257629394532	227.1279602050781	1160.757690429688	262.2667846679687	422.3871154785156	1027.793701171875	232.9664306640625	428.4807739257812	1030.359008789062	-201.5199584960938	252.611083984375	1375.948608398438	-38.45654678344732	179.0078887939453	1507.131958007812	-37.50640869140632	183.2957000732422	1528.23046875	89.94461059570305	49.66736221313474	1410.30078125	185.0599365234374	24.5349521636963	1400.85791015625	-109.1757049560548	34.09718704223632	1322.647216796875	42.85772323608391	486.8329467773438	1045.632690429688	-126.7635345458985	484.35791015625	1050.401245117188	159.532470703125	
1169	9.733333333333333	255.745849609375	1377.996337890625	105.604751586914	-202.4716796875	374.2613220214844	194.0325317382812	-48.60872268676759	1199.415405273438	46.21519470214836	91.67874145507812	470.6889953613281	-53.20719146728517	122.0270767211914	862.6847534179688	-119.0494232177735	-206.8260498046875	1349.78564453125	54.71724700927723	185.6178283691406	1126.9228515625	220.0298461914062	389.4553833007812	1008.5791015625	181.2557373046875	27.44296264648437	1458.965942382812	48.96062469482413	-184.1842498779297	1110.68994140625	-54.75952911376962	241.426513671875	388.7736206054688	-124.4455184936523	-87.49176788330081	222.4104766845703	199.4673004150391	411.916015625	1026.461181640625	-140.4818725585938	-346.336669921875	1139.426147460938	-3.26785469055187	-341.2120971679688	1134.80810546875	106.2691497802733	-183.4188690185547	1100.004150390625	154.4456176757812	142.5832824707031	819.1680908203125	-25.98275947570804	31.41062736511229	659.0205688476562	132.0959167480468	12.44078159332273	708.7232055664062	222.4335937499999	61.70158767700197	467.4215698242188	-131.8555450439453	-170.2825622558594	364.0935363769531	119.9603652954101	10.39985275268556	455.6837768554688	-89.96451568603518	-250.5001525878907	387.412841796875	141.9193115234374	181.7736511230469	1122.177001953125	-182.4132995605469	218.9248657226563	1170.647583007812	-199.7847442626954	227.1856536865234	1160.726440429688	262.3354797363281	422.4697265624999	1027.788818359375	232.8675994873047	428.6078491210938	1030.297607421875	-201.6607208251953	252.9146728515625	1376.108032226562	-38.10535430908209	179.3249359130859	1507.295654296875	-37.09537887573249	183.5250701904297	1528.2744140625	90.38025665283196	49.73406982421873	1410.286254882812	185.2935791015624	24.90283393859865	1401.149047851562	-108.9552459716798	34.34831237792968	1322.71923828125	43.01789474487298	486.9461059570312	1045.562255859375	-126.8902282714844	484.3876037597656	1050.41064453125	159.3936157226562	
1170	9.741666666666667	255.9299011230469	1378.059692382812	105.965232849121	-203.1893615722657	383.7146911621094	194.3421630859374	-48.25834655761719	1199.4736328125	46.18716430664055	93.92120361328125	461.3299255371094	-53.54298400878908	120.9229736328125	853.5931396484375	-119.4142303466797	-206.5599212646484	1349.782348632812	54.53163909912098	185.6924896240234	1126.897705078125	220.0687713623047	389.5290222167969	1008.593688964844	181.1403350830078	27.7020092010498	1459.101196289062	49.25910568237295	-183.8356018066406	1110.614013671875	-55.21157455444345	244.5323638916016	380.9341735839844	-124.5314788818359	-91.3471603393555	229.5668792724609	199.5232543945312	412.043701171875	1026.442504882812	-140.6754150390625	-345.9581298828125	1139.300170898438	-3.931915760040395	-340.9892272949219	1134.966796875	105.8355331420897	-183.1842651367188	1100.14697265625	154.019302368164	145.4116363525391	810.9691772460938	-28.03679084777835	40.10034942626952	664.618408203125	130.9295501708984	17.1572456359863	713.6346435546875	223.240737915039	63.98252868652345	457.8052673339844	-132.2499694824219	-171.2369384765625	373.0040588378906	120.3047866821289	12.7557191848755	445.5653076171875	-90.49382781982425	-253.0033264160157	399.8216857910156	145.380142211914	182.0090026855469	1122.53369140625	-182.7766571044922	219.3274078369141	1171.005004882812	-199.9019927978516	227.2633209228515	1160.657104492188	262.3875122070312	422.5719604492187	1027.784423828125	232.73828125	428.7171630859375	1030.2568359375	-201.8171081542969	253.2255096435547	1376.265869140625	-37.73925781250006	179.5834197998047	1507.443969726562	-36.68307495117195	183.6940765380859	1528.320190429688	90.79261016845696	49.8130187988281	1410.248901367188	185.5980377197265	25.3208465576172	1401.43994140625	-108.6744003295899	34.63397216796874	1322.822998046875	43.20661163330071	487.0802307128906	1045.478759765625	-127.0566024780274	484.4440002441406	1050.410888671875	159.2513427734375	
1171	9.75	256.1571655273438	1378.125122070312	106.3660354614257	-203.3635406494141	393.2680969238281	194.6392669677734	-47.9200668334961	1199.53173828125	46.20438385009758	95.60129547119141	451.9083251953125	-53.89022445678712	117.8338623046875	845.963623046875	-119.5654830932618	-206.2940216064453	1349.769409179688	54.30490493774403	185.7574157714843	1126.8359375	220.1154327392578	389.5820007324219	1008.5908203125	181.0524444580078	27.95363044738769	1459.211303710938	49.56133270263663	-183.5139465332031	1110.478271484375	-55.60836791992197	247.1651458740235	372.8981018066406	-124.5768508911133	-94.74375152587893	236.9446868896484	199.6327362060547	412.1514282226562	1026.453735351562	-140.8871307373047	-345.51806640625	1139.31640625	-4.407431125640982	-340.766357421875	1135.124877929688	105.389793395996	-182.9096374511719	1100.294067382812	153.6450958251952	149.4012145996094	802.039306640625	-30.21372222900394	44.00289154052733	669.5977172851562	132.1452484130859	21.92994308471677	718.7958984375	224.0333251953124	65.8461151123047	448.115966796875	-132.5681304931641	-167.2227172851563	384.638916015625	120.8216400146484	14.77259254455567	435.3153991699219	-90.84803009033206	-252.014633178711	409.1492309570312	143.4832916259765	182.2498321533203	1122.888549804688	-183.1027069091797	219.7302398681641	1171.34619140625	-200.0009918212891	227.346939086914	1160.576171875	262.4327697753906	422.6594238281249	1027.779907226562	232.6333160400391	428.8729553222656	1030.244750976562	-201.9506530761719	253.5953979492188	1376.473754882812	-37.33730316162115	179.8899078369141	1507.62255859375	-36.20555496215827	183.9222717285156	1528.367553710938	91.26977539062493	49.87292480468748	1410.181884765625	185.8912506103515	25.75983619689943	1401.739013671875	-108.4192962646485	34.95379638671874	1322.882568359375	43.39215087890618	487.2001342773438	1045.415405273438	-127.183090209961	484.487548828125	1050.40380859375	159.11865234375	
